<svg width="500" height="350" viewBox="0 0 500 350" xmlns="http://www.w3.org/2000/svg">
  <!-- Simple Background -->
  <rect width="100%" height="100%" fill="#3B82F6" rx="20"/>
  
  <!-- Content Area -->
  <rect x="30" y="30" width="440" height="290" fill="#F8FAFC" rx="15" opacity="0.95"/>
  
  <!-- Simple Printer -->
  <rect x="80" y="80" width="60" height="40" fill="#1E293B" rx="5"/>
  <rect x="85" y="85" width="50" height="30" fill="#F1F5F9" rx="3"/>
  <rect x="95" y="130" width="30" height="20" fill="#64748B" rx="3"/>
  
  <!-- BUZZAWORK Text -->
  <text x="250" y="160" font-family="Arial, sans-serif" font-size="32" font-weight="bold" text-anchor="middle" fill="#1E293B">BUZZAWORK</text>
  <text x="250" y="190" font-family="Arial, sans-serif" font-size="16" text-anchor="middle" fill="#64748B">Print &amp; Design Solutions</text>
  
  <!-- Simple Design Elements -->
  <circle cx="350" cy="100" r="8" fill="#EF4444"/>
  <circle cx="370" cy="100" r="8" fill="#F59E0B"/>
  <circle cx="390" cy="100" r="8" fill="#10B981"/>
  
  <!-- Papers -->
  <rect x="320" y="250" width="80" height="60" fill="#FFFFFF" rx="4"/>
  <rect x="325" y="255" width="70" height="8" fill="#3B82F6" rx="2"/>
  <rect x="325" y="268" width="50" height="4" fill="#64748B" rx="1"/>
  <rect x="325" y="275" width="60" height="4" fill="#64748B" rx="1"/>
  
  <!-- Quality Badge -->
  <circle cx="420" cy="280" r="25" fill="#10B981"/>
  <text x="420" y="285" font-family="Arial, sans-serif" font-size="20" text-anchor="middle" fill="white">★</text>
</svg>
